<svg role="img" viewBox="0 0 24 24" xmlns="http://www.w3.org/2000/svg" fill="currentColor">
  <title>GitHub</title>
  <path d="M12 .5C5.73.5.5 5.73.5 12.02c0 5.11 3.29 9.44 7.86 10.97.58.11.79-.25.79-.56 0-.28-.01-1.02-.02-2-3.2.69-3.87-1.55-3.87-1.55-.53-1.34-1.3-1.7-1.3-1.7-1.06-.72.08-.71.08-.71 1.17.08 1.79 1.2 1.79 1.2 1.04 1.78 2.73 1.27 3.4.97.11-.75.41-1.27.74-1.56-2.55-.29-5.23-1.28-5.23-5.68 0-1.26.45-2.28 1.19-3.08-.12-.29-.52-1.45.11-3.03 0 0 .97-.31 3.18 1.18a11.1 11.1 0 0 1 5.79 0c2.2-1.49 3.17-1.18 3.17-1.18.63 1.58.23 2.74.11 3.03.74.8 1.18 1.82 1.18 3.08 0 4.41-2.69 5.39-5.25 5.67.42.36.8 1.09.8 2.2 0 1.59-.01 2.88-.01 3.27 0 .31.21.68.8.56A10.52 10.52 0 0 0 23.5 12C23.5 5.73 18.27.5 12 .5Z"/>
</svg>
