<svg role="img" viewBox="0 0 24 24" xmlns="http://www.w3.org/2000/svg">
  <title>Google</title>
  <path d="M23.49 12.27c0-.79-.07-1.54-.21-2.27H12v4.3h6.48c-.28 1.48-1.12 2.73-2.39 3.57v2.96h3.87c2.27-2.09 3.53-5.17 3.53-8.56z" fill="#4285F4"/>
  <path d="M12 24c3.24 0 5.96-1.07 7.95-2.91l-3.87-2.96c-1.08.72-2.47 1.15-4.08 1.15-3.14 0-5.8-2.12-6.75-4.98H1.26v3.11A12 12 0 0 0 12 24z" fill="#34A853"/>
  <path d="M5.25 14.3A7.18 7.18 0 0 1 4.88 12c0-.8.14-1.59.37-2.3V6.59H1.26A12 12 0 0 0 0 12c0 1.91.46 3.72 1.26 5.41z" fill="#FBBC04"/>
  <path d="M12 4.75c1.76 0 3.33.6 4.57 1.78l3.42-3.43C17.96 1.13 15.24 0 12 0A12 12 0 0 0 1.26 6.59l3.99 3.11C6.2 6.87 8.86 4.75 12 4.75z" fill="#EA4335"/>
</svg>
